<svg width="48" height="42" viewBox="0 0 48 42" fill="none" xmlns="http://www.w3.org/2000/svg">
<path d="M32.9081 0.312071C31.8618 0.315134 30.8594 0.732774 30.1202 1.47324C29.3809 2.2137 28.9652 3.21681 28.9639 4.26311V4.52132C28.3811 4.6226 27.8205 4.82998 27.3087 5.13373C26.5541 5.58147 25.9274 6.22541 25.4916 7.00085C25.0558 7.77629 24.8262 8.65582 24.8259 9.5513H34.757C34.757 8.65554 34.5275 7.77559 34.0917 6.99984C33.6559 6.22409 33.0291 5.57999 32.2742 5.13211C31.762 4.8301 31.2015 4.62429 30.619 4.52456V4.26311C30.619 2.97704 31.627 1.96724 32.9081 1.96724H39.9194C41.2006 1.96724 42.2036 2.97704 42.2036 4.26311V21.0017H20.0822C19.6701 19.6677 18.3277 17.9961 17.0698 17.9961C16.704 17.9961 16.3448 18.0706 16.0055 18.2096C15.6629 16.902 14.5192 15.995 13.2149 15.995C12.3774 15.995 11.6226 16.3656 11.0963 16.9582C10.9515 16.8584 10.7787 16.8076 10.603 16.8127C10.5837 16.812 10.5644 16.812 10.5451 16.8127C10.0747 16.8451 9.61675 16.9777 9.20194 17.2018C8.78712 17.4259 8.42508 17.7362 8.14014 18.1118C7.44413 17.4078 6.49837 17.007 5.50841 16.9963C3.43448 16.9963 1.75614 18.8567 1.67172 20.9985H0.827586C0.369103 20.9985 0 21.3676 0 21.8261V25.1364C0 25.5949 0.369103 25.964 0.827586 25.964H47.1724C47.6309 25.964 48 25.5949 48 25.1364V21.8261C48 21.3676 47.6309 20.9985 47.1724 20.9985H43.8621V4.25806C43.8603 3.21291 43.4451 2.21098 42.707 1.47101C41.9688 0.73105 40.9679 0.313209 39.9228 0.308838H32.9098L32.9081 0.312071ZM25.6535 10.2431V11.8983H27.3087V10.2431H25.6535ZM28.9639 10.2431V11.8983H30.619V10.2431H28.9639ZM32.2742 10.2431V11.8983H33.9294V10.2431H32.2742ZM25.6535 13.5535V15.2086H27.3087V13.5535H25.6535ZM28.9639 13.5535V15.2086H30.619V13.5535H28.9639ZM32.2742 13.5535V15.2086H33.9294V13.5535H32.2742ZM25.6535 16.8638V18.519H27.3087V16.8638H25.6535ZM28.9639 16.8638V18.519H30.619V16.8638H28.9639ZM32.2742 16.8638V18.519H33.9294V16.8638H32.2742ZM1.65352 27.6224V33.1474C1.65352 36.5057 4.23558 39.2086 7.44662 39.2086V41.6914H9.10179V39.2086H38.8949V41.6914H40.5501V39.2086C43.7594 39.2086 46.3432 36.5057 46.3432 33.1474V27.6224H1.65186H1.65352Z" fill="white"/>
</svg>
