<svg width="48" height="34" viewBox="0 0 48 34" fill="none" xmlns="http://www.w3.org/2000/svg">
<path d="M13.0909 18.091C16.7127 18.091 19.6364 15.1674 19.6364 11.5456C19.6364 7.92375 16.7127 5.00011 13.0909 5.00011C9.46909 5.00011 6.54545 7.92375 6.54545 11.5456C6.54545 15.1674 9.46909 18.091 13.0909 18.091ZM39.2727 5.00011H26.1818C23.7818 5.00011 21.8182 6.96375 21.8182 9.36375V20.2728H4.36364V2.81829C4.36364 1.61829 3.38182 0.636475 2.18182 0.636475C0.981818 0.636475 0 1.61829 0 2.81829V31.1819C0 32.3819 0.981818 33.3637 2.18182 33.3637C3.38182 33.3637 4.36364 32.3819 4.36364 31.1819V26.8183H43.6364V31.1819C43.6364 32.3819 44.6182 33.3637 45.8182 33.3637C47.0182 33.3637 48 32.3819 48 31.1819V13.7274C48 8.90557 44.0945 5.00011 39.2727 5.00011Z" fill="white"/>
</svg>
