<svg width="157" height="157" viewBox="0 0 157 157" fill="none" xmlns="http://www.w3.org/2000/svg">
<path d="M98.125 36.7969C94.872 36.7969 91.7521 35.5046 89.4519 33.2044C87.1516 30.9041 85.8594 27.7843 85.8594 24.5312V7.35938H29.4375C27.4857 7.35938 25.6138 8.13474 24.2336 9.51489C22.8535 10.895 22.0781 12.7669 22.0781 14.7188V132.469C22.0781 134.421 22.8535 136.292 24.2336 137.673C25.6138 139.053 27.4857 139.828 29.4375 139.828H81.1003C77.8476 134.695 76.1441 128.733 76.1941 122.656C76.2069 114.228 79.5507 106.146 85.4968 100.172C91.4428 94.1986 99.5091 90.8174 107.938 90.7656C110.418 90.7569 112.889 91.0535 115.297 91.6488V36.7969H98.125ZM68.6875 95.6719H39.25C38.5994 95.6719 37.9754 95.4134 37.5154 94.9534C37.0553 94.4933 36.7969 93.8694 36.7969 93.2188C36.7969 92.5681 37.0553 91.9442 37.5154 91.4841C37.9754 91.0241 38.5994 90.7656 39.25 90.7656H68.6875C69.3381 90.7656 69.9621 91.0241 70.4221 91.4841C70.8822 91.9442 71.1406 92.5681 71.1406 93.2188C71.1406 93.8694 70.8822 94.4933 70.4221 94.9534C69.9621 95.4134 69.3381 95.6719 68.6875 95.6719ZM98.125 76.0469H39.25C38.5994 76.0469 37.9754 75.7884 37.5154 75.3284C37.0553 74.8683 36.7969 74.2444 36.7969 73.5938C36.7969 72.9431 37.0553 72.3192 37.5154 71.8591C37.9754 71.3991 38.5994 71.1406 39.25 71.1406H98.125C98.7756 71.1406 99.3996 71.3991 99.8596 71.8591C100.32 72.3192 100.578 72.9431 100.578 73.5938C100.578 74.2444 100.32 74.8683 99.8596 75.3284C99.3996 75.7884 98.7756 76.0469 98.125 76.0469ZM98.125 56.4219H39.25C38.5994 56.4219 37.9754 56.1634 37.5154 55.7034C37.0553 55.2433 36.7969 54.6194 36.7969 53.9688C36.7969 53.3181 37.0553 52.6942 37.5154 52.2341C37.9754 51.7741 38.5994 51.5156 39.25 51.5156H98.125C98.7756 51.5156 99.3996 51.7741 99.8596 52.2341C100.32 52.6942 100.578 53.3181 100.578 53.9688C100.578 54.6194 100.32 55.2433 99.8596 55.7034C99.3996 56.1634 98.7756 56.4219 98.125 56.4219Z" fill="white"/>
<path d="M117.014 97.2416L116.328 96.9963C113.615 96.1279 110.786 95.6811 107.938 95.6716C102.784 95.6753 97.7389 97.1548 93.3993 99.9353C89.0597 102.716 85.6072 106.681 83.45 111.362C81.2928 116.042 80.5212 121.243 81.2265 126.348C81.9318 131.454 84.0844 136.251 87.4297 140.171L87.7241 140.515C90.4516 143.582 93.8428 145.986 97.6396 147.545C101.436 149.104 105.539 149.776 109.634 149.51C113.73 149.245 117.711 148.048 121.275 146.012C124.839 143.976 127.891 141.154 130.2 137.76C132.508 134.367 134.012 130.491 134.597 126.429C135.182 122.366 134.833 118.224 133.576 114.317C132.318 110.41 130.186 106.841 127.342 103.882C124.498 100.923 121.016 98.6521 117.162 97.2416H117.014ZM117.75 125.109H110.391V132.468C110.391 133.119 110.133 133.743 109.672 134.203C109.212 134.663 108.588 134.922 107.938 134.922C107.287 134.922 106.663 134.663 106.203 134.203C105.743 133.743 105.485 133.119 105.485 132.468V125.109H97.5366C96.9923 124.975 96.5105 124.658 96.1713 124.212C95.832 123.765 95.6559 123.216 95.6723 122.656C95.6723 122.005 95.9307 121.381 96.3908 120.921C96.8508 120.461 97.4748 120.203 98.1254 120.203H105.485V112.843C105.47 112.302 105.643 111.772 105.974 111.343C106.304 110.914 106.773 110.612 107.3 110.488H107.938C108.588 110.488 109.212 110.747 109.672 111.207C110.133 111.667 110.391 112.291 110.391 112.942V120.301H117.75C118.401 120.301 119.025 120.559 119.485 121.019C119.945 121.48 120.203 122.103 120.203 122.754C120.203 123.405 119.945 124.029 119.485 124.489C119.025 124.949 118.401 125.207 117.75 125.207V125.109ZM111.814 31.8903H98.1254C96.1735 31.8903 94.3017 31.115 92.9215 29.7348C91.5414 28.3547 90.766 26.4828 90.766 24.531V10.8425L111.814 31.8903Z" fill="white"/>
</svg>
