<svg width="105" height="85" viewBox="0 0 105 85" fill="none" xmlns="http://www.w3.org/2000/svg">
<path d="M89.25 0.375H15.75C11.5728 0.375 7.56677 2.03437 4.61307 4.98807C1.65937 7.94177 0 11.9478 0 16.125V68.625C0 72.8022 1.65937 76.8082 4.61307 79.7619C7.56677 82.7156 11.5728 84.375 15.75 84.375H89.25C93.4272 84.375 97.4332 82.7156 100.387 79.7619C103.341 76.8082 105 72.8022 105 68.625V16.125C105 11.9478 103.341 7.94177 100.387 4.98807C97.4332 2.03437 93.4272 0.375 89.25 0.375ZM89.25 10.875L55.125 34.3425C54.3269 34.8033 53.4216 35.0459 52.5 35.0459C51.5784 35.0459 50.6731 34.8033 49.875 34.3425L15.75 10.875H89.25Z" fill="white"/>
</svg>
