<svg width="24" height="24" viewBox="0 0 24 24" fill="none" xmlns="http://www.w3.org/2000/svg">
<path d="M15.9998 12.9995C15.534 13.6205 14.9301 14.1245 14.2358 14.4716C13.5415 14.8188 12.776 14.9995 11.9998 14.9995C11.2235 14.9995 10.458 14.8188 9.76369 14.4716C9.06941 14.1245 8.46549 13.6205 7.99976 12.9995C7.60779 13.5279 7.11454 13.9729 6.54879 14.3087C5.98303 14.6444 5.35609 14.8642 4.70452 14.9551C4.05296 15.0461 3.3898 15.0064 2.75373 14.8383C2.11767 14.6703 1.52142 14.3774 0.999756 13.9765V18.9995C1.00134 20.3251 1.52864 21.5959 2.46598 22.5333C3.40331 23.4706 4.67416 23.9979 5.99976 23.9995H17.9998C19.3254 23.9979 20.5962 23.4706 21.5335 22.5333C22.4709 21.5959 22.9982 20.3251 22.9998 18.9995V13.9735C22.4783 14.3745 21.8822 14.6677 21.2462 14.8359C20.6103 15.0042 19.9472 15.0442 19.2956 14.9535C18.6441 14.8628 18.0171 14.6434 17.4512 14.3079C16.8854 13.9724 16.3919 13.5276 15.9998 12.9995Z" fill="black"/>
<path d="M21.6998 3.13156C21.5062 2.24065 21.0123 1.44336 20.3008 0.873317C19.5893 0.303277 18.7034 -0.0048589 17.7918 0.000558514H16.9998V3.00056C16.9998 3.26578 16.8944 3.52013 16.7069 3.70767C16.5193 3.8952 16.265 4.00056 15.9998 4.00056C15.7345 4.00056 15.4802 3.8952 15.2926 3.70767C15.1051 3.52013 14.9998 3.26578 14.9998 3.00056V0.000558514H8.99976V3.00056C8.99976 3.26578 8.8944 3.52013 8.70686 3.70767C8.51933 3.8952 8.26497 4.00056 7.99976 4.00056C7.73454 4.00056 7.48019 3.8952 7.29265 3.70767C7.10511 3.52013 6.99976 3.26578 6.99976 3.00056V0.000558514H6.20776C5.29594 -0.00480998 4.41 0.303468 3.69848 0.873705C2.98696 1.44394 2.49312 2.24147 2.29976 3.13256L1.02176 8.90056L0.999756 10.0206C1.00107 10.4145 1.07997 10.8044 1.23194 11.1678C1.38392 11.5313 1.606 11.8613 1.88551 12.139C2.44999 12.6997 3.21411 13.0132 4.00976 13.0106C4.40372 13.0092 4.79357 12.9303 5.15704 12.7784C5.52052 12.6264 5.8505 12.4043 6.12815 12.1248C6.40579 11.8453 6.62567 11.5138 6.77522 11.1494C6.92477 10.7849 7.00107 10.3945 6.99976 10.0006C6.99976 9.73534 7.10511 9.48099 7.29265 9.29345C7.48019 9.10592 7.73454 9.00056 7.99976 9.00056C8.26497 9.00056 8.51933 9.10592 8.70686 9.29345C8.8944 9.48099 8.99976 9.73534 8.99976 10.0006C8.99976 10.7962 9.31583 11.5593 9.87844 12.1219C10.441 12.6845 11.2041 13.0006 11.9998 13.0006C12.7954 13.0006 13.5585 12.6845 14.1211 12.1219C14.6837 11.5593 14.9998 10.7962 14.9998 10.0006C14.9998 9.73534 15.1051 9.48099 15.2926 9.29345C15.4802 9.10592 15.7345 9.00056 15.9998 9.00056C16.265 9.00056 16.5193 9.10592 16.7069 9.29345C16.8944 9.48099 16.9998 9.73534 16.9998 10.0006C16.9998 10.7962 17.3158 11.5593 17.8784 12.1219C18.441 12.6845 19.2041 13.0006 19.9998 13.0006C20.7954 13.0006 21.5585 12.6845 22.1211 12.1219C22.6837 11.5593 22.9998 10.7962 22.9998 10.0006V9.10756L21.6998 3.13156Z" fill="black"/>
</svg>
