<svg width="23" height="24" viewBox="0 0 23 24" fill="none" xmlns="http://www.w3.org/2000/svg">
<path fill-rule="evenodd" clip-rule="evenodd" d="M12.948 23.8467C11.9804 24.0335 10.5181 24.0547 9.52086 23.8819C9.27526 23.8395 9.02006 23.6111 8.95046 23.3719L8.30367 21.1463C8.23407 20.9071 8.00287 20.6119 7.78727 20.4875L5.44369 19.1348C5.22809 19.0104 4.85769 18.9616 4.61729 19.026L2.40971 19.6175C2.16931 19.6819 1.84371 19.5795 1.68331 19.3896C1.06651 18.6592 0.365719 17.4424 0.0445212 16.57C-0.0414783 16.3364 0.0285212 16.0012 0.20052 15.8212L1.86051 14.0904C2.03251 13.9108 2.17251 13.5628 2.17251 13.3136V10.6076C2.17251 10.3588 2.02971 10.0136 1.85371 9.83762L0.19892 8.18323C0.0229214 8.00723 -0.0498782 7.67483 0.0361213 7.44123C0.112921 7.23283 0.402519 6.61204 0.750516 6.00964C1.10611 5.39405 1.50811 4.82165 1.66011 4.64045C1.81971 4.44965 2.14571 4.34285 2.38771 4.40245L4.74929 4.98245C4.99089 5.04165 5.36248 4.98885 5.57808 4.86445L7.92127 3.51126C8.13687 3.38686 8.36446 3.09046 8.42886 2.85006L9.02566 0.622479C9.09006 0.382081 9.34166 0.153282 9.58726 0.111682C10.4893 -0.0403166 11.8784 -0.0391166 12.8044 0.127282C13.0492 0.171282 13.3004 0.40208 13.3648 0.642479L13.9564 2.85006C14.0208 3.09046 14.2484 3.38686 14.4636 3.51126L16.8072 4.86445C17.0228 4.98885 17.3932 5.03765 17.6336 4.97325L19.8412 4.38165C20.0816 4.31725 20.4072 4.41925 20.5676 4.60925C21.2108 5.37085 21.926 6.62804 22.252 7.54083C22.3356 7.77563 22.2608 8.10883 22.0848 8.28483L20.5316 9.83762C20.3556 10.0136 20.2128 10.3588 20.2128 10.6076V13.3136C20.2128 13.5628 20.3556 13.9076 20.5316 14.0836L22.108 15.66C22.284 15.836 22.3596 16.1696 22.2768 16.4044C22.1852 16.6644 21.8768 17.3372 21.5004 17.9896C21.1448 18.6052 20.7428 19.1776 20.5908 19.3592C20.4308 19.5495 20.1056 19.6523 19.8652 19.5879L17.768 19.026C17.5272 18.9616 17.1572 19.0104 16.9416 19.1348L14.598 20.4875C14.3824 20.6119 14.1552 20.9083 14.0908 21.1487L13.5076 23.3255C13.4432 23.5659 13.1924 23.7995 12.948 23.8467ZM5.74168 11.9996C5.74168 9.01242 8.16647 6.58724 11.1536 6.58724C14.1404 6.58724 16.5656 9.01242 16.5656 11.9996C16.5656 14.9864 14.1404 17.4116 11.1536 17.4116C8.16647 17.4116 5.74168 14.9864 5.74168 11.9996Z" fill="white"/>
</svg>
