<svg width="97" height="96" viewBox="0 0 97 96" fill="none" xmlns="http://www.w3.org/2000/svg">
<path d="M49.0071 0C22.9806 0 1.87972 20.9359 1.87972 46.764C1.87972 55.599 4.35086 63.8619 8.64236 70.9112L0.136719 96L26.229 87.711C32.9807 91.4149 40.7458 93.528 49.0071 93.528C75.0371 93.528 96.1367 72.5891 96.1367 46.764C96.1367 20.9359 75.0371 0 49.0071 0ZM72.4419 64.5236C71.3332 67.2722 66.3189 69.7806 64.1064 69.8961C61.8962 70.0134 61.8332 71.6091 49.7835 66.3746C37.7353 61.1387 30.4866 48.408 29.9151 47.5881C29.3432 46.7713 25.248 40.9352 25.4689 35.0621C25.6914 29.1879 28.9076 26.4165 30.0555 25.2639C31.2021 24.1095 32.5168 23.9027 33.3195 23.8896C34.2684 23.8742 34.8829 23.8614 35.5851 23.8873C36.2867 23.9139 37.3406 23.7405 38.253 26.1671C39.165 28.5934 41.3479 34.557 41.6271 35.1647C41.9061 35.7731 42.0789 36.4774 41.649 37.2585C41.2179 38.0413 40.9971 38.5303 40.3716 39.2049C39.7427 39.8794 39.0486 40.7139 38.4876 41.2296C37.8619 41.8007 37.2084 42.4236 37.8662 43.6444C38.5236 44.8644 40.7919 48.8636 44.2474 52.1593C48.6885 56.3959 52.5184 57.8012 53.697 58.4415C54.8788 59.0852 55.584 59.0136 56.3169 58.2424C57.0463 57.4712 59.4538 54.8683 60.3017 53.7062C61.1492 52.5409 61.9434 52.7691 63.0321 53.2071C64.1203 53.6469 69.9229 56.7549 71.1049 57.3966C72.2857 58.0371 73.0749 58.3671 73.3571 58.8752C73.6393 59.3852 73.5501 61.7747 72.4419 64.5236Z" fill="white"/>
</svg>
