<svg width="65" height="44" viewBox="0 0 65 44" fill="none" xmlns="http://www.w3.org/2000/svg">
<path d="M20.69 26.125C21.54 26.125 22.4 26.115 23.23 26.085L23.49 26.075L23.42 25.825C22.95 24.055 22.71 22.205 22.71 20.325C22.71 19.065 22.82 17.835 23.02 16.665L23.06 16.435L22.82 16.425C22.15 16.405 21.44 16.395 20.68 16.395C8.99 16.395 0.25 18.965 0.25 21.265C0.25 23.555 8.99 26.125 20.69 26.125Z" fill="white"/>
<path d="M7.34 33.595C11.12 34.425 15.86 34.885 20.69 34.885C23.06 34.885 25.4 34.775 27.65 34.555L28.04 34.515L27.79 34.215C26.1816 32.3239 24.919 30.1642 24.06 27.835L24.01 27.695L23.86 27.705C22.83 27.745 21.76 27.765 20.69 27.765C11.87 27.765 3.97 26.315 0.57 24.075L0.25 23.865V30.035C0.25 30.775 1.74 32.365 7.34 33.595Z" fill="white"/>
<path d="M29.55 36.075L29.48 36.005L29.38 36.015C26.68 36.345 23.76 36.515 20.69 36.515C15.71 36.515 10.85 36.045 6.99 35.185C5.05 34.765 2.37 34.015 0.57 32.855L0.25 32.655V38.785C0.25 40.815 8.03 43.635 20.69 43.635C27.61 43.635 33.83 42.775 37.76 41.275L38.31 41.065L37.75 40.885C34.71 39.935 31.88 38.275 29.55 36.075Z" fill="white"/>
<path d="M44.3 0.36499C33.3 0.36499 24.35 9.31499 24.35 20.325C24.35 31.325 33.3 40.275 44.3 40.275C55.3 40.275 64.25 31.325 64.25 20.325C64.25 9.32499 55.3 0.36499 44.3 0.36499ZM44.3 35.505C35.93 35.505 29.12 28.695 29.12 20.325C29.12 11.955 35.93 5.14499 44.3 5.14499C52.67 5.14499 59.48 11.955 59.48 20.325C59.48 28.695 52.67 35.505 44.3 35.505Z" fill="white"/>
<path d="M48.24 20.145C47.94 19.845 47.57 19.585 47.15 19.355C46.77 19.155 46.37 18.975 45.88 18.775C45.53 18.645 45.17 18.505 44.82 18.385C44.5 18.265 44.19 18.125 43.87 17.955C43.63 17.835 43.44 17.675 43.3 17.485C43.1769 17.3172 43.1136 17.113 43.12 16.905C43.12 16.745 43.15 16.605 43.22 16.465C43.26 16.365 43.33 16.275 43.44 16.185C43.57 16.085 43.74 16.005 43.94 15.955C44.16 15.895 44.44 15.865 44.78 15.865C45.17 15.865 45.5 15.905 45.78 15.985C46.1 16.075 46.38 16.165 46.62 16.265C46.87 16.375 47.08 16.465 47.25 16.545C47.5 16.675 47.69 16.735 47.85 16.735C47.98 16.735 48.11 16.695 48.2 16.625C48.32 16.545 48.42 16.405 48.45 16.285C48.5 16.165 48.52 16.015 48.54 15.845C48.55 15.695 48.56 15.505 48.56 15.275C48.56 15.095 48.55 14.945 48.54 14.845C48.54 14.695 48.53 14.555 48.5 14.445C48.47 14.305 48.44 14.205 48.38 14.105C48.31 13.995 48.22 13.895 48.17 13.855C48.07 13.755 47.92 13.655 47.73 13.565C47.56 13.495 47.38 13.415 47.17 13.335C46.97 13.275 46.75 13.205 46.52 13.155C46.43 13.135 46.34 13.115 46.24 13.095L46.41 11.425C46.41 11.315 46.39 11.205 46.36 11.085C46.31 10.925 46.19 10.795 45.97 10.685C45.84 10.635 45.7 10.605 45.55 10.585C45.39 10.565 45.19 10.545 44.95 10.545C44.74 10.545 44.56 10.545 44.46 10.565C44.29 10.585 44.15 10.615 44.07 10.655C43.9 10.725 43.81 10.835 43.74 10.915C43.7 10.975 43.63 11.105 43.63 11.235L43.45 13.055C42.91 13.135 42.43 13.275 42.02 13.445C41.5 13.655 41.04 13.955 40.65 14.325C40.28 14.695 39.99 15.125 39.8 15.595C39.6 16.075 39.5 16.605 39.5 17.205C39.5 17.855 39.6 18.415 39.79 18.855C39.98 19.315 40.24 19.715 40.57 20.045C40.88 20.355 41.24 20.625 41.65 20.855C42.03 21.065 42.42 21.245 42.81 21.385C43.2 21.545 43.58 21.685 43.94 21.815C44.27 21.935 44.58 22.075 44.87 22.245C45.11 22.375 45.29 22.525 45.44 22.715C45.56 22.865 45.61 23.055 45.61 23.305C45.61 23.695 45.47 23.985 45.16 24.215C44.83 24.465 44.3 24.595 43.56 24.595C43.05 24.595 42.63 24.545 42.28 24.445C41.7249 24.3004 41.193 24.0782 40.7 23.785C40.37 23.585 40.19 23.565 40.09 23.565C39.96 23.565 39.83 23.595 39.69 23.675C39.54 23.765 39.46 23.905 39.39 24.055C39.35 24.175 39.32 24.315 39.29 24.525C39.28 24.685 39.27 24.905 39.27 25.145C39.27 25.475 39.29 25.745 39.33 25.955C39.39 26.195 39.48 26.375 39.61 26.505C39.71 26.605 39.85 26.705 40.08 26.835C40.24 26.925 40.46 27.015 40.69 27.105C40.92 27.195 41.18 27.265 41.47 27.345C41.64 27.385 41.81 27.415 41.98 27.455L41.81 29.165C41.77 29.315 41.78 29.465 41.85 29.665C41.92 29.795 42.03 29.905 42.18 30.005C42.31 30.065 42.45 30.105 42.63 30.135C42.78 30.155 42.98 30.175 43.24 30.175C43.44 30.175 43.62 30.165 43.75 30.135C43.92 30.105 44.02 30.075 44.06 30.055C44.23 30.005 44.38 29.895 44.41 29.805C44.49 29.695 44.52 29.575 44.54 29.455L44.73 27.505C45.32 27.425 45.87 27.295 46.36 27.115C46.9315 26.901 47.46 26.586 47.92 26.185C48.36 25.785 48.71 25.315 48.94 24.775C49.18 24.255 49.29 23.645 49.29 22.965C49.29 22.315 49.19 21.775 48.99 21.325C48.8294 20.8815 48.5734 20.4786 48.24 20.145Z" fill="white"/>
</svg>
