<svg width="87" height="86" viewBox="0 0 87 86" fill="none" xmlns="http://www.w3.org/2000/svg">
<path d="M4.42529 30.194C6.37902 30.194 7.97752 28.5955 7.97752 26.6418V14.5642C7.97752 10.4791 11.3522 7.10448 15.4372 7.10448H27.5148C29.4686 7.10448 31.0671 5.50597 31.0671 3.55224C31.0671 1.59851 29.4686 0 27.5148 0H15.4372C7.44469 0 0.873047 6.57164 0.873047 14.5642V26.6418C0.873047 28.5955 2.47155 30.194 4.42529 30.194ZM27.5148 78.1492H15.4372C11.3522 78.1492 7.97752 74.7746 7.97752 70.6895V58.6119C7.97752 56.6582 6.37902 55.0597 4.42529 55.0597C2.47155 55.0597 0.873047 56.6582 0.873047 58.6119V70.6895C0.873047 78.6821 7.44469 85.2537 15.4372 85.2537H27.5148C29.4686 85.2537 31.0671 83.6552 31.0671 81.7015C31.0671 79.7477 29.4686 78.1492 27.5148 78.1492ZM82.5745 55.0597C80.6208 55.0597 79.0223 56.6582 79.0223 58.6119V70.6895C79.0223 74.7746 75.6477 78.1492 71.5626 78.1492H59.485C57.5312 78.1492 55.9327 79.7477 55.9327 81.7015C55.9327 83.6552 57.5312 85.2537 59.485 85.2537H71.5626C79.5551 85.2537 86.1268 78.6821 86.1268 70.6895V58.6119C86.1268 56.6582 84.5283 55.0597 82.5745 55.0597ZM71.5626 0H59.485C57.5312 0 55.9327 1.59851 55.9327 3.55224C55.9327 5.50597 57.5312 7.10448 59.485 7.10448H71.5626C75.6477 7.10448 79.0223 10.4791 79.0223 14.5642V26.6418C79.0223 28.5955 80.6208 30.194 82.5745 30.194C84.5283 30.194 86.1268 28.5955 86.1268 26.6418V14.5642C86.1268 6.57164 79.5551 0 71.5626 0Z" fill="white"/>
<path d="M34.6193 15.9851H20.4104C18.4566 15.9851 16.8581 17.5836 16.8581 19.5373V33.7463C16.8581 35.7 18.4566 37.2985 20.4104 37.2985H34.6193C36.573 37.2985 38.1715 35.7 38.1715 33.7463V19.5373C38.1715 17.5836 36.573 15.9851 34.6193 15.9851ZM52.3805 37.2985H66.5895C68.5432 37.2985 70.1417 35.7 70.1417 33.7463V19.5373C70.1417 17.5836 68.5432 15.9851 66.5895 15.9851H52.3805C50.4268 15.9851 48.8283 17.5836 48.8283 19.5373V33.7463C48.8283 35.7 50.4268 37.2985 52.3805 37.2985ZM34.6193 46.1791H20.4104C18.4566 46.1791 16.8581 47.7776 16.8581 49.7313V63.9403C16.8581 65.894 18.4566 67.4925 20.4104 67.4925H34.6193C36.573 67.4925 38.1715 65.894 38.1715 63.9403V49.7313C38.1715 47.7776 36.573 46.1791 34.6193 46.1791ZM70.1417 63.9403V49.7313C70.1417 47.7776 68.5432 46.1791 66.5895 46.1791H52.3805C50.4268 46.1791 48.8283 47.7776 48.8283 49.7313V63.9403C48.8283 65.894 50.4268 67.4925 52.3805 67.4925H66.5895C68.5432 67.4925 70.1417 65.894 70.1417 63.9403Z" fill="white"/>
</svg>
