<svg width="26" height="24" viewBox="0 0 26 24" fill="none" xmlns="http://www.w3.org/2000/svg">
<path d="M25.9987 7.9749C25.9984 7.96001 25.9975 7.94517 25.9965 7.93027C25.9949 7.90732 25.9925 7.88467 25.9894 7.86217C25.9876 7.84927 25.9858 7.83644 25.9835 7.82358C25.9788 7.79715 25.9728 7.77121 25.9661 7.74555C25.9643 7.73883 25.9635 7.73198 25.9615 7.72528L24.1688 1.4505C24.0481 1.03334 23.7955 0.666518 23.4488 0.405015C23.1021 0.143512 22.68 0.00140799 22.2457 0H3.75427C3.32 0.00140902 2.89788 0.14352 2.55117 0.405036C2.20446 0.666552 1.95184 1.03339 1.83118 1.45056L0.0384524 7.72528C0.0365299 7.73198 0.0357026 7.73883 0.0339351 7.74555C0.0271613 7.77121 0.02121 7.79715 0.01648 7.82358C0.0141912 7.83644 0.0123901 7.84927 0.0105901 7.86217C0.00747633 7.88467 0.00512754 7.90732 0.00354004 7.93027C0.00247254 7.94517 0.00164751 7.96001 0.00128126 7.9749C0.00106751 7.98332 0 7.99152 0 8V10C6.22132e-05 10.7758 0.180832 11.541 0.527983 12.2348C0.875133 12.9286 1.37912 13.532 2 13.9972V22C2.00061 22.5302 2.21151 23.0386 2.58646 23.4135C2.9614 23.7885 3.46975 23.9994 4 24H22C22.5302 23.9994 23.0386 23.7885 23.4135 23.4135C23.7885 23.0386 23.9994 22.5302 24 22V13.9972C24.6209 13.532 25.1249 12.9286 25.472 12.2348C25.8192 11.541 25.9999 10.7758 26 10V8C26 7.99152 25.9989 7.98332 25.9987 7.9749ZM2 9H8V10C8.00034 10.5161 7.86742 11.0236 7.61413 11.4733C7.36083 11.923 6.99573 12.2997 6.55417 12.5669C6.1126 12.8341 5.60953 12.9828 5.09365 12.9986C4.57776 13.0144 4.06654 12.8967 3.60947 12.657C3.54007 12.6031 3.46387 12.5587 3.38284 12.5248C2.95912 12.2537 2.6104 11.8803 2.36875 11.4391C2.1271 10.9979 2.0003 10.503 2 10V9ZM16 10C16 10.7956 15.6839 11.5587 15.1213 12.1213C14.5587 12.6839 13.7956 13 13 13C12.2044 13 11.4413 12.6839 10.8787 12.1213C10.3161 11.5587 10 10.7956 10 10V9H16V10ZM22.6165 12.5252C22.536 12.559 22.4603 12.6031 22.3913 12.6566C21.9342 12.8965 21.423 13.0143 20.907 12.9986C20.391 12.9829 19.8879 12.8343 19.4462 12.5671C19.0045 12.2999 18.6393 11.9232 18.386 11.4735C18.1326 11.0237 17.9997 10.5162 18 10V9H24V10C23.9997 10.5032 23.8728 10.9982 23.6311 11.4395C23.3893 11.8807 23.0404 12.2541 22.6165 12.5252Z" fill="white"/>
</svg>
