<svg width="24" height="25" viewBox="0 0 24 25" fill="none" xmlns="http://www.w3.org/2000/svg">
<path d="M15.31 9.1902C18.1106 11.9937 18.0722 16.4885 15.3269 19.2491C15.3214 19.255 15.3158 19.2608 15.31 19.2664L12.16 22.4164C9.38169 25.1947 4.86158 25.1943 2.08372 22.4164C-0.694573 19.6386 -0.694573 15.118 2.08372 12.3402L3.82305 10.6009C4.28428 10.1396 5.07863 10.4462 5.10244 11.098C5.13282 11.9288 5.28177 12.7633 5.55666 13.5693C5.64974 13.8422 5.58326 14.1441 5.37935 14.348L4.76591 14.9614C3.4522 16.2752 3.41097 18.4142 4.71177 19.7408C6.02539 21.0804 8.18457 21.0884 9.50827 19.7647L12.6583 16.6152C13.9797 15.2937 13.9742 13.1578 12.6583 11.8419C12.4848 11.6688 12.31 11.5342 12.1735 11.4403C12.0769 11.3739 11.9972 11.286 11.9407 11.1834C11.8841 11.0808 11.8524 10.9664 11.8479 10.8493C11.8293 10.354 12.0048 9.84358 12.3962 9.45219L13.3832 8.46526C13.642 8.20644 14.048 8.17467 14.3481 8.38414C14.6917 8.62411 15.0136 8.89384 15.31 9.1902Z" fill="white"/>
<path d="M21.9163 2.58357C19.1385 -0.194333 14.6184 -0.194717 11.8401 2.58357L8.69006 5.73358C8.68444 5.73919 8.67835 5.74529 8.67316 5.7509C5.9279 8.51148 5.8894 13.0063 8.69006 15.8098C8.98645 16.1062 9.30833 16.3759 9.65198 16.6159C9.95208 16.8253 10.3581 16.7935 10.6169 16.5347L11.6038 15.5478C11.9952 15.1564 12.1707 14.646 12.1522 14.1507C12.1477 14.0336 12.1159 13.9192 12.0594 13.8166C12.0028 13.7141 11.9231 13.6261 11.8265 13.5598C11.69 13.4658 11.5153 13.3313 11.3418 13.1581C10.0259 11.8422 10.0203 9.7063 11.3418 8.38486L14.4918 5.23534C15.8155 3.91164 17.9746 3.91961 19.2883 5.25924C20.5891 6.58582 20.5479 8.72489 19.2341 10.0386L18.6207 10.652C18.4168 10.856 18.3503 11.1578 18.4434 11.4308C18.7183 12.2367 18.8672 13.0713 18.8976 13.902C18.9215 14.5539 19.7158 14.8604 20.177 14.3992L21.9163 12.6598C24.6946 9.88198 24.6946 5.36138 21.9163 2.58357Z" fill="white"/>
</svg>
