<svg width="42" height="48" viewBox="0 0 42 48" fill="none" xmlns="http://www.w3.org/2000/svg">
<path d="M40.0884 0.761475C40.5984 0.761475 41.0398 0.926449 41.4125 1.2564C41.7852 1.58635 41.9715 1.97708 41.9715 2.42859V45.7735C41.9715 46.225 41.7852 46.6157 41.4125 46.9457C41.0398 47.2756 40.5984 47.4406 40.0884 47.4406H2.42609C1.91607 47.4406 1.47472 47.2756 1.10202 46.9457C0.729319 46.6157 0.542969 46.225 0.542969 45.7735V2.42859C0.542969 1.97708 0.729319 1.58635 1.10202 1.2564C1.47472 0.926449 1.91607 0.761475 2.42609 0.761475H40.0884ZM15.6079 8.26348V9.93059C15.6079 10.1737 15.6962 10.3734 15.8727 10.5297C16.0493 10.686 16.2748 10.7641 16.5495 10.7641H18.4326C18.7072 10.7641 18.9328 10.686 19.1093 10.5297C19.2859 10.3734 19.3741 10.1737 19.3741 9.93059V8.26348C19.3741 8.02036 19.2859 7.82065 19.1093 7.66436C18.9328 7.50807 18.7072 7.42992 18.4326 7.42992H16.5495C16.2748 7.42992 16.0493 7.50807 15.8727 7.66436C15.6962 7.82065 15.6079 8.02036 15.6079 8.26348ZM15.6079 14.9319V16.599C15.6079 16.8422 15.6962 17.0419 15.8727 17.1982C16.0493 17.3545 16.2748 17.4326 16.5495 17.4326H18.4326C18.7072 17.4326 18.9328 17.3545 19.1093 17.1982C19.2859 17.0419 19.3741 16.8422 19.3741 16.599V14.9319C19.3741 14.6888 19.2859 14.4891 19.1093 14.3328C18.9328 14.1765 18.7072 14.0984 18.4326 14.0984H16.5495C16.2748 14.0984 16.0493 14.1765 15.8727 14.3328C15.6962 14.4891 15.6079 14.6888 15.6079 14.9319ZM15.6079 21.6004V23.2675C15.6079 23.5106 15.6962 23.7103 15.8727 23.8666C16.0493 24.0229 16.2748 24.101 16.5495 24.101H18.4326C18.7072 24.101 18.9328 24.0229 19.1093 23.8666C19.2859 23.7103 19.3741 23.5106 19.3741 23.2675V21.6004C19.3741 21.3573 19.2859 21.1576 19.1093 21.0013C18.9328 20.845 18.7072 20.7668 18.4326 20.7668H16.5495C16.2748 20.7668 16.0493 20.845 15.8727 21.0013C15.6962 21.1576 15.6079 21.3573 15.6079 21.6004ZM15.6079 28.2688V29.9359C15.6079 30.1791 15.6962 30.3788 15.8727 30.5351C16.0493 30.6913 16.2748 30.7695 16.5495 30.7695H18.4326C18.7072 30.7695 18.9328 30.6913 19.1093 30.5351C19.2859 30.3788 19.3741 30.1791 19.3741 29.9359V28.2688C19.3741 28.0257 19.2859 27.826 19.1093 27.6697C18.9328 27.5134 18.7072 27.4353 18.4326 27.4353H16.5495C16.2748 27.4353 16.0493 27.5134 15.8727 27.6697C15.6962 27.826 15.6079 28.0257 15.6079 28.2688ZM11.8417 36.6044V34.9373C11.8417 34.6942 11.7534 34.4944 11.5769 34.3382C11.4003 34.1819 11.1747 34.1037 10.9001 34.1037H9.017C8.74237 34.1037 8.51679 34.1819 8.34025 34.3382C8.16371 34.4944 8.07544 34.6942 8.07544 34.9373V36.6044C8.07544 36.8475 8.16371 37.0472 8.34025 37.2035C8.51679 37.3598 8.74237 37.4379 9.017 37.4379H10.9001C11.1747 37.4379 11.4003 37.3598 11.5769 37.2035C11.7534 37.0472 11.8417 36.8475 11.8417 36.6044ZM11.8417 29.9359V28.2688C11.8417 28.0257 11.7534 27.826 11.5769 27.6697C11.4003 27.5134 11.1747 27.4353 10.9001 27.4353H9.017C8.74237 27.4353 8.51679 27.5134 8.34025 27.6697C8.16371 27.826 8.07544 28.0257 8.07544 28.2688V29.9359C8.07544 30.1791 8.16371 30.3788 8.34025 30.5351C8.51679 30.6913 8.74237 30.7695 9.017 30.7695H10.9001C11.1747 30.7695 11.4003 30.6913 11.5769 30.5351C11.7534 30.3788 11.8417 30.1791 11.8417 29.9359ZM11.8417 23.2675V21.6004C11.8417 21.3573 11.7534 21.1576 11.5769 21.0013C11.4003 20.845 11.1747 20.7668 10.9001 20.7668H9.017C8.74237 20.7668 8.51679 20.845 8.34025 21.0013C8.16371 21.1576 8.07544 21.3573 8.07544 21.6004V23.2675C8.07544 23.5106 8.16371 23.7103 8.34025 23.8666C8.51679 24.0229 8.74237 24.101 9.017 24.101H10.9001C11.1747 24.101 11.4003 24.0229 11.5769 23.8666C11.7534 23.7103 11.8417 23.5106 11.8417 23.2675ZM11.8417 16.599V14.9319C11.8417 14.6888 11.7534 14.4891 11.5769 14.3328C11.4003 14.1765 11.1747 14.0984 10.9001 14.0984H9.017C8.74237 14.0984 8.51679 14.1765 8.34025 14.3328C8.16371 14.4891 8.07544 14.6888 8.07544 14.9319V16.599C8.07544 16.8422 8.16371 17.0419 8.34025 17.1982C8.51679 17.3545 8.74237 17.4326 9.017 17.4326H10.9001C11.1747 17.4326 11.4003 17.3545 11.5769 17.1982C11.7534 17.0419 11.8417 16.8422 11.8417 16.599ZM11.8417 9.93059V8.26348C11.8417 8.02036 11.7534 7.82065 11.5769 7.66436C11.4003 7.50807 11.1747 7.42992 10.9001 7.42992H9.017C8.74237 7.42992 8.51679 7.50807 8.34025 7.66436C8.16371 7.82065 8.07544 8.02036 8.07544 8.26348V9.93059C8.07544 10.1737 8.16371 10.3734 8.34025 10.5297C8.51679 10.686 8.74237 10.7641 9.017 10.7641H10.9001C11.1747 10.7641 11.4003 10.686 11.5769 10.5297C11.7534 10.3734 11.8417 10.1737 11.8417 9.93059ZM26.9066 43.2728V38.2715C26.9066 38.0284 26.8183 37.8287 26.6418 37.6724C26.4653 37.5161 26.2397 37.4379 25.965 37.4379H16.5495C16.2748 37.4379 16.0493 37.5161 15.8727 37.6724C15.6962 37.8287 15.6079 38.0284 15.6079 38.2715V43.2728C15.6079 43.516 15.6962 43.7157 15.8727 43.872C16.0493 44.0282 16.2748 44.1064 16.5495 44.1064H25.965C26.2397 44.1064 26.4653 44.0282 26.6418 43.872C26.8183 43.7157 26.9066 43.516 26.9066 43.2728ZM26.9066 29.9359V28.2688C26.9066 28.0257 26.8183 27.826 26.6418 27.6697C26.4653 27.5134 26.2397 27.4353 25.965 27.4353H24.0819C23.8073 27.4353 23.5817 27.5134 23.4052 27.6697C23.2286 27.826 23.1404 28.0257 23.1404 28.2688V29.9359C23.1404 30.1791 23.2286 30.3788 23.4052 30.5351C23.5817 30.6913 23.8073 30.7695 24.0819 30.7695H25.965C26.2397 30.7695 26.4653 30.6913 26.6418 30.5351C26.8183 30.3788 26.9066 30.1791 26.9066 29.9359ZM26.9066 23.2675V21.6004C26.9066 21.3573 26.8183 21.1576 26.6418 21.0013C26.4653 20.845 26.2397 20.7668 25.965 20.7668H24.0819C23.8073 20.7668 23.5817 20.845 23.4052 21.0013C23.2286 21.1576 23.1404 21.3573 23.1404 21.6004V23.2675C23.1404 23.5106 23.2286 23.7103 23.4052 23.8666C23.5817 24.0229 23.8073 24.101 24.0819 24.101H25.965C26.2397 24.101 26.4653 24.0229 26.6418 23.8666C26.8183 23.7103 26.9066 23.5106 26.9066 23.2675ZM26.9066 16.599V14.9319C26.9066 14.6888 26.8183 14.4891 26.6418 14.3328C26.4653 14.1765 26.2397 14.0984 25.965 14.0984H24.0819C23.8073 14.0984 23.5817 14.1765 23.4052 14.3328C23.2286 14.4891 23.1404 14.6888 23.1404 14.9319V16.599C23.1404 16.8422 23.2286 17.0419 23.4052 17.1982C23.5817 17.3545 23.8073 17.4326 24.0819 17.4326H25.965C26.2397 17.4326 26.4653 17.3545 26.6418 17.1982C26.8183 17.0419 26.9066 16.8422 26.9066 16.599ZM26.9066 9.93059V8.26348C26.9066 8.02036 26.8183 7.82065 26.6418 7.66436C26.4653 7.50807 26.2397 7.42992 25.965 7.42992H24.0819C23.8073 7.42992 23.5817 7.50807 23.4052 7.66436C23.2286 7.82065 23.1404 8.02036 23.1404 8.26348V9.93059C23.1404 10.1737 23.2286 10.3734 23.4052 10.5297C23.5817 10.686 23.8073 10.7641 24.0819 10.7641H25.965C26.2397 10.7641 26.4653 10.686 26.6418 10.5297C26.8183 10.3734 26.9066 10.1737 26.9066 9.93059ZM34.4391 36.6044V34.9373C34.4391 34.6942 34.3508 34.4944 34.1743 34.3382C33.9977 34.1819 33.7721 34.1037 33.4975 34.1037H31.6144C31.3398 34.1037 31.1142 34.1819 30.9377 34.3382C30.7611 34.4944 30.6728 34.6942 30.6728 34.9373V36.6044C30.6728 36.8475 30.7611 37.0472 30.9377 37.2035C31.1142 37.3598 31.3398 37.4379 31.6144 37.4379H33.4975C33.7721 37.4379 33.9977 37.3598 34.1743 37.2035C34.3508 37.0472 34.4391 36.8475 34.4391 36.6044ZM34.4391 29.9359V28.2688C34.4391 28.0257 34.3508 27.826 34.1743 27.6697C33.9977 27.5134 33.7721 27.4353 33.4975 27.4353H31.6144C31.3398 27.4353 31.1142 27.5134 30.9377 27.6697C30.7611 27.826 30.6728 28.0257 30.6728 28.2688V29.9359C30.6728 30.1791 30.7611 30.3788 30.9377 30.5351C31.1142 30.6913 31.3398 30.7695 31.6144 30.7695H33.4975C33.7721 30.7695 33.9977 30.6913 34.1743 30.5351C34.3508 30.3788 34.4391 30.1791 34.4391 29.9359ZM34.4391 23.2675V21.6004C34.4391 21.3573 34.3508 21.1576 34.1743 21.0013C33.9977 20.845 33.7721 20.7668 33.4975 20.7668H31.6144C31.3398 20.7668 31.1142 20.845 30.9377 21.0013C30.7611 21.1576 30.6728 21.3573 30.6728 21.6004V23.2675C30.6728 23.5106 30.7611 23.7103 30.9377 23.8666C31.1142 24.0229 31.3398 24.101 31.6144 24.101H33.4975C33.7721 24.101 33.9977 24.0229 34.1743 23.8666C34.3508 23.7103 34.4391 23.5106 34.4391 23.2675ZM34.4391 16.599V14.9319C34.4391 14.6888 34.3508 14.4891 34.1743 14.3328C33.9977 14.1765 33.7721 14.0984 33.4975 14.0984H31.6144C31.3398 14.0984 31.1142 14.1765 30.9377 14.3328C30.7611 14.4891 30.6728 14.6888 30.6728 14.9319V16.599C30.6728 16.8422 30.7611 17.0419 30.9377 17.1982C31.1142 17.3545 31.3398 17.4326 31.6144 17.4326H33.4975C33.7721 17.4326 33.9977 17.3545 34.1743 17.1982C34.3508 17.0419 34.4391 16.8422 34.4391 16.599ZM34.4391 9.93059V8.26348C34.4391 8.02036 34.3508 7.82065 34.1743 7.66436C33.9977 7.50807 33.7721 7.42992 33.4975 7.42992H31.6144C31.3398 7.42992 31.1142 7.50807 30.9377 7.66436C30.7611 7.82065 30.6728 8.02036 30.6728 8.26348V9.93059C30.6728 10.1737 30.7611 10.3734 30.9377 10.5297C31.1142 10.686 31.3398 10.7641 31.6144 10.7641H33.4975C33.7721 10.7641 33.9977 10.686 34.1743 10.5297C34.3508 10.3734 34.4391 10.1737 34.4391 9.93059Z" fill="white"/>
</svg>
