<svg width="43" height="47" viewBox="0 0 43 47" fill="none" xmlns="http://www.w3.org/2000/svg">
<path d="M38.05 23.9641H5.08516C2.7529 23.9641 0.857422 25.6462 0.857422 27.716V32.5136H5.56315L6.84878 46.8042H9.44477L10.9776 32.5136H32.1493L33.6904 46.8042H36.2864L37.5803 32.5136H42.286V27.716C42.2816 26.7208 41.8337 25.7677 41.04 25.0647C40.2463 24.3617 39.1714 23.9661 38.05 23.9641ZM6.56858 22.6477H36.5666L38.4621 5.36591C38.5857 4.30545 38.4126 3.29619 37.9676 2.45514C37.2589 1.08751 36.0721 0.261089 34.3909 -0.00219727L8.65361 0.00511623C7.04657 0.268402 5.86808 1.08751 5.16758 2.44782C4.71431 3.29619 4.54949 4.29814 4.6731 5.3586L6.56858 22.6477Z" fill="white"/>
</svg>
