<svg width="23" height="22" viewBox="0 0 23 22" fill="none" xmlns="http://www.w3.org/2000/svg">
<path d="M16.0589 13.5387C11.9089 13.0257 8.36787 10.1597 6.81387 6.27766C6.1246 4.58223 5.86756 2.74206 6.06587 0.922658C6.07533 0.82866 6.05797 0.733903 6.0158 0.649365C5.97363 0.564826 5.90837 0.493965 5.82758 0.444989C5.74679 0.396014 5.65378 0.370929 5.55933 0.372641C5.46487 0.374352 5.37283 0.402789 5.29387 0.454658C1.86687 2.65666 -0.318134 6.62166 0.0378663 11.0737C0.479866 16.5977 4.99687 21.1297 10.5199 21.5867C16.1659 22.0547 21.0419 18.4387 22.5299 13.3737C22.6479 12.9717 22.2559 12.5997 21.8689 12.7597C20.0328 13.52 18.0303 13.7885 16.0589 13.5387Z" fill="white"/>
</svg>
