<?xml version="1.0" standalone="no"?>
<!DOCTYPE svg PUBLIC "-//W3C//DTD SVG 20010904//EN"
  "http://www.w3.org/TR/2001/REC-SVG-20010904/DTD/svg10.dtd">
<svg version="1.0" xmlns="http://www.w3.org/2000/svg"
     width="500pt" height="500pt" viewBox="0 0 500 500"
     preserveAspectRatio="xMidYMid meet">


  <g transform="translate(0,500) scale(0.1,-0.1)" stroke="none">
    <!-- satellite 1 (secondary red) -->
    <path fill="#EE3F44" d="M3972 4225 c-127 -39 -207 -151 -207 -290 0 -169 114 -292 281 -303 61 -4 80 -1 126 20 77 35 123 81 158 153 113 236 -110 498 -358 420z"/>
    <!-- planet core (primary maroon) -->
    <path fill="#511C30" d="M2302 3744 c-171 -29 -342 -103 -486 -211 -219 -165 -355 -383 -427 -683 -17 -74 -17 -347 0 -420 29 -117 63 -218 102 -301 l41 -86 52 -7 c193 -23 793 30 1123 99 169 36 216 48 423 106 281 78 479 153 485 183 28 138 30 276 6 411 -61 342 -289 650 -596 803 -216 109 -478 147 -723 106z"/>
    <!-- planet shading (primary maroon) -->
    <path fill="#511C30" d="M3603 3531 c-62 -59 -113 -114 -113 -122 0 -8 11 -27 23 -43 19 -23 29 -28 48 -22 35 9 249 217 249 241 -1 34 -25 55 -61 55 -29 -1 -49 -16 -146 -109z"/>
    <!-- small ring segment (primary maroon) -->
    <path fill="#511C30" d="M3651 3256 c-7 -8 -11 -32 -9 -53 l3 -37 135 -17 c74 -9 149 -20 165 -23 194 -45 285 -81 346 -139 46 -44 59 -69 59 -119 1 -257 -600 -588 -1430 -786 -239 -57 -475 -95 -815 -132 -129 -13 -556 -13 -660 0 -249 33 -321 47 -480 92 -205 58 -299 151 -265 261 45 142 176 255 465 401 93 47 101 54 109 88 7 27 6 41 -4 52 -17 22 -30 20 -107 -14 -194 -87 -328 -176 -440 -293 -99 -104 -143 -191 -143 -283 0 -80 56 -169 141 -224 174 -112 430 -173 841 -199 l147 -9 48 -39 c26 -21 50 -41 53 -44 17 -19 144 -96 213 -129 430 -205 941 -111 1282 234 81 81 205 248 205 275 0 11 51 41 70 41 5 0 32 9 58 21 26 12 56 25 67 29 105 42 302 142 405 206 164 102 276 213 328 326 30 65 30 170 1 233 -55 116 -233 211 -479 256 -69 12 -259 39 -281 39 -9 0 -22 -6 -28 -14z"/>
    <!-- satellite 2 shading (primary maroon) -->
    <path fill="#511C30" d="M1573 1717 c-33 -18 -173 -173 -173 -191 0 -24 37 -56 63 -56 16 0 49 26 105 84 67 68 82 89 82 114 0 21 -7 36 -22 46 -26 19 -27 19 -55 3z"/>
    <!-- satellite 2 body (secondary red) -->
    <path fill="#EE3F44" d="M1085 1491 c-143 -25 -252 -162 -243 -306 4 -68 41 -157 82 -198 14 -14 47 -39 74 -54 42 -25 57 -28 137 -28 103 0 159 21 220 82 63 63 79 106 80 208 0 81 -3 95 -30 144 -62 113 -190 174 -320 152z"/>
  </g>
</svg>
